<svg width="85" height="18" viewBox="0 0 85 18" fill="none" xmlns="http://www.w3.org/2000/svg">
<path d="M85 6.73245C84.3218 5.99394 83.6836 5.21168 82.9583 4.52525C76.1743 -1.89844 70.5149 -1.49429 64.6442 5.80853C63.6623 7.02931 62.6845 8.25322 61.678 9.45317C59.034 12.6062 57.1318 12.6718 54.2969 9.60212C52.4789 7.63241 50.8639 5.46375 48.9966 3.54717C44.8208 -0.737029 40.0561 -0.741195 35.8895 3.53988C33.9452 5.53771 32.2656 7.79803 30.3573 9.83545C27.7738 12.5926 25.8593 12.5405 23.3887 9.75628C21.4608 7.58346 19.7464 5.18564 17.6503 3.20135C12.5028 -1.67136 3.3396 -0.00580923 0.241082 6.31164C-0.123148 7.05223 -0.0790301 8.49904 0.40319 9.04381C1.01263 9.73128 2.27667 10.1177 3.24213 10.0886C3.99111 10.0667 4.75856 9.26151 5.44496 8.71258C10.734 4.47734 11.8308 4.58879 16.3 9.87815C17.3825 11.1593 18.4167 12.4885 19.5658 13.7061C24.1438 18.559 28.8839 18.7799 33.8005 14.1769C35.8248 12.2812 37.4767 9.97919 39.3379 7.89907C41.7233 5.2346 43.2069 5.26689 45.6201 7.98448C47.5479 10.1563 49.2839 12.5416 51.4139 14.4832C56.0853 18.7424 60.8141 18.4611 65.1489 13.8332C66.9024 11.9604 68.4075 9.85003 70.1189 7.93448C72.8204 4.91065 74.6415 4.82107 77.8088 7.41992C78.4121 7.91469 79.0092 8.42196 79.5684 8.96673C81.4572 10.8052 83.2589 10.7271 85 8.76257C85 8.08552 85 7.40847 85 6.73245Z" fill="#ffa200"/>
</svg>
