<svg width="102" height="21" viewBox="0 0 102 21" fill="none" xmlns="http://www.w3.org/2000/svg">
<path d="M102 12.9211C101.186 13.8073 100.42 14.746 99.5499 15.5697C91.4092 23.2781 84.6179 22.7931 77.573 14.0298C76.3947 12.5648 75.2214 11.0961 74.0136 9.6562C70.8408 5.8726 68.5581 5.79386 65.1563 9.47745C62.9746 11.8411 61.0367 14.4435 58.7959 16.7434C53.785 21.8844 48.0673 21.8894 43.0674 16.7521C40.7342 14.3547 38.7188 11.6424 36.4287 9.19746C33.3286 5.88885 31.0311 5.95135 28.0664 9.29246C25.753 11.8999 23.6957 14.7772 21.1803 17.1584C15.0034 23.0056 4.00752 21.007 0.289298 13.426C-0.147778 12.5373 -0.0948362 10.8011 0.483828 10.1474C1.21516 9.32246 2.732 8.85873 3.89056 8.89373C4.78934 8.91998 5.71027 9.88619 6.53395 10.5449C12.8808 15.6272 14.1969 15.4935 19.56 9.14622C20.859 7.60878 22.1 6.01385 23.479 4.55266C28.9726 -1.27085 34.6607 -1.53584 40.5606 3.98768C42.9898 6.26259 44.972 9.02497 47.2054 11.5211C50.068 14.7185 51.8483 14.6797 54.7441 11.4186C57.0575 8.81248 59.1407 5.9501 61.6967 3.6202C67.3023 -1.49084 72.9769 -1.15335 78.1787 4.40016C80.2829 6.64757 82.089 9.17996 84.1427 11.4786C87.3844 15.1072 89.5698 15.2147 93.3705 12.0961C94.0945 11.5024 94.811 10.8936 95.482 10.2399C97.7487 8.03376 99.9107 8.12751 102 10.4849C102 11.2974 102 12.1098 102 12.9211Z" fill="#FBFBFB"/>
</svg>
